<svg xmlns="http://www.w3.org/2000/svg" width="50" height="50" viewBox="0 0 32 32">
  <metadata><?xpacket begin="﻿" id="W5M0MpCehiHzreSzNTczkc9d"?>
<x:xmpmeta xmlns:x="adobe:ns:meta/" x:xmptk="Adobe XMP Core 5.6-c138 79.159824, 2016/09/14-01:09:01        ">
   <rdf:RDF xmlns:rdf="http://www.w3.org/1999/02/22-rdf-syntax-ns#">
      <rdf:Description rdf:about=""/>
   </rdf:RDF>
</x:xmpmeta>
                                                                                                    
                                                                                                    
                                                                                                    
                                                                                                    
                                                                                                    
                                                                                                    
                                                                                                    
                                                                                                    
                                                                                                    
                                                                                                    
                                                                                                    
                                                                                                    
                                                                                                    
                                                                                                    
                                                                                                    
                                                                                                    
                                                                                                    
                                                                                                    
                                                                                                    
                                                                                                    
                           
<?xpacket end="w"?></metadata>
<defs>

  </defs>
  <path id="BOOK_2" data-name="BOOK 2" class="cls-1" d="M422.064,1585.89l-14.471,5.99a1.528,1.528,0,0,1-1.187,0l-14.471-5.99a1.5,1.5,0,0,1-.935-1.39v-23a1.5,1.5,0,0,1,1.5-1.5,1.556,1.556,0,0,1,.574.11h0a0.014,0.014,0,0,0,.014.01L407,1565.88l13.91-5.76a0.013,0.013,0,0,0,.014-0.01h0a1.554,1.554,0,0,1,.573-0.11,1.5,1.5,0,0,1,1.5,1.5v23A1.5,1.5,0,0,1,422.064,1585.89ZM405.5,1568.5l-11.5-4.76v19.76l11.5,4.76V1568.5Zm14.5-4.76-11.5,4.76v19.76l11.5-4.76v-19.76Zm-9.121,6.89,5.5-2.5h0A1.592,1.592,0,0,1,417,1568a1.5,1.5,0,0,1,.621,2.87h0l-5.5,2.49h0a1.439,1.439,0,0,1-.621.14A1.5,1.5,0,0,1,410.879,1570.63Zm0,5.5h0l5.5-2.5h0a1.592,1.592,0,0,1,.62-0.13,1.5,1.5,0,0,1,1.5,1.5,1.481,1.481,0,0,1-.879,1.36l-5.5,2.51v-0.01a1.439,1.439,0,0,1-.621.14A1.5,1.5,0,0,1,410.879,1576.13Zm0,5.5h0l5.5-2.5h0A1.592,1.592,0,0,1,417,1579a1.5,1.5,0,0,1,.621,2.87h0l-5.5,2.49h0a1.439,1.439,0,0,1-.621.14A1.5,1.5,0,0,1,410.879,1581.63ZM397,1568a1.592,1.592,0,0,1,.62.13h0l5.5,2.5h0a1.5,1.5,0,0,1-.62,2.87,1.439,1.439,0,0,1-.621-0.14h0l-5.5-2.49h0A1.5,1.5,0,0,1,397,1568Zm0,5.5a1.592,1.592,0,0,1,.62.13h0l5.5,2.5h0a1.5,1.5,0,0,1-.62,2.87,1.439,1.439,0,0,1-.621-0.14v0.01l-5.5-2.51h0a1.481,1.481,0,0,1-.879-1.36A1.5,1.5,0,0,1,397,1573.5Zm0,5.5a1.592,1.592,0,0,1,.62.13h0l5.5,2.5h0a1.5,1.5,0,0,1-.62,2.87,1.439,1.439,0,0,1-.621-0.14h0l-5.5-2.49h0A1.5,1.5,0,0,1,397,1579Z" transform="translate(-391 -1560)"/>
</svg>
