<svg xmlns="http://www.w3.org/2000/svg" width="49.739" height="49.874" viewBox="0 0 23.875 23.94">
  <metadata><?xpacket begin="﻿" id="W5M0MpCehiHzreSzNTczkc9d"?>
<x:xmpmeta xmlns:x="adobe:ns:meta/" x:xmptk="Adobe XMP Core 5.6-c138 79.159824, 2016/09/14-01:09:01        ">
   <rdf:RDF xmlns:rdf="http://www.w3.org/1999/02/22-rdf-syntax-ns#">
      <rdf:Description rdf:about=""/>
   </rdf:RDF>
</x:xmpmeta>
                                                                                                    
                                                                                                    
                                                                                                    
                                                                                                    
                                                                                                    
                                                                                                    
                                                                                                    
                                                                                                    
                                                                                                    
                                                                                                    
                                                                                                    
                                                                                                    
                                                                                                    
                                                                                                    
                                                                                                    
                                                                                                    
                                                                                                    
                                                                                                    
                                                                                                    
                                                                                                    
                           
<?xpacket end="w"?></metadata>
<defs>

  </defs>
  <path id="dribbble" class="cls-1" d="M733.473,6274.59a11.8,11.8,0,0,0-.7-2.25,11.578,11.578,0,0,0-1.1-2.04,12,12,0,0,0-3.223-3.23,11.411,11.411,0,0,0-2.027-1.11,11.739,11.739,0,0,0-2.244-.69,11.683,11.683,0,0,0-4.808,0,11.742,11.742,0,0,0-2.242.69,11.455,11.455,0,0,0-2.028,1.11,12,12,0,0,0-3.223,3.23,11.644,11.644,0,0,0-1.1,2.04,11.869,11.869,0,0,0-.7,2.25,12.072,12.072,0,0,0,0,4.82,11.869,11.869,0,0,0,.7,2.25,12.012,12.012,0,0,0,1.1,2.04,12,12,0,0,0,3.223,3.23,12.083,12.083,0,0,0,2.028,1.1,11.772,11.772,0,0,0,2.242.7,11.683,11.683,0,0,0,4.808,0,11.769,11.769,0,0,0,2.244-.7,12.035,12.035,0,0,0,2.027-1.1,12,12,0,0,0,3.223-3.23,11.942,11.942,0,0,0,1.1-2.04,11.8,11.8,0,0,0,.7-2.25A12.024,12.024,0,0,0,733.473,6274.59Zm-1.5,2.31a23.223,23.223,0,0,0-7.1-.34c-0.071-.17-0.144-0.35-0.22-0.53-0.212-.5-0.44-0.99-0.677-1.48a13.092,13.092,0,0,0,5.679-4.05A10.2,10.2,0,0,1,731.97,6276.9Zm-3.457-7.58a11.122,11.122,0,0,1-5.325,3.71,51.237,51.237,0,0,0-3.81-5.97,10.006,10.006,0,0,1,2.4-.29A10.168,10.168,0,0,1,728.513,6269.32Zm-9.174-2.25h0a0.073,0.073,0,0,0-.03.01A0.042,0.042,0,0,1,719.339,6267.07Zm-1.909.68a60.215,60.215,0,0,1,3.785,5.89,37.051,37.051,0,0,1-9.411,1.25A10.212,10.212,0,0,1,717.43,6267.75Zm-5.844,9.25c0-.11,0-0.22.009-0.33a37.1,37.1,0,0,0,10.465-1.45c0.292,0.57.571,1.15,0.827,1.74a3.02,3.02,0,0,0-.4.12,16.123,16.123,0,0,0-8.291,6.75h0A10.194,10.194,0,0,1,711.586,6277Zm10.194,10.23a10.1,10.1,0,0,1-6.493-2.35c0.134,0.11.228,0.18,0.228,0.18s1.954-4.27,8-6.39c0.022-.01.044-0.01,0.067-0.02a42.6,42.6,0,0,1,2.178,7.77A10.152,10.152,0,0,1,721.78,6287.23Zm5.7-1.75a44.145,44.145,0,0,0-1.984-7.3,14.734,14.734,0,0,1,6.353.44A10.237,10.237,0,0,1,727.476,6285.48Z" transform="translate(-709.844 -6265.03)"/>
</svg>
