<svg xmlns="http://www.w3.org/2000/svg" width="50" height="50" viewBox="0 0 32 32">
  <metadata><?xpacket begin="﻿" id="W5M0MpCehiHzreSzNTczkc9d"?>
<x:xmpmeta xmlns:x="adobe:ns:meta/" x:xmptk="Adobe XMP Core 5.6-c138 79.159824, 2016/09/14-01:09:01        ">
   <rdf:RDF xmlns:rdf="http://www.w3.org/1999/02/22-rdf-syntax-ns#">
      <rdf:Description rdf:about=""/>
   </rdf:RDF>
</x:xmpmeta>
                                                                                                    
                                                                                                    
                                                                                                    
                                                                                                    
                                                                                                    
                                                                                                    
                                                                                                    
                                                                                                    
                                                                                                    
                                                                                                    
                                                                                                    
                                                                                                    
                                                                                                    
                                                                                                    
                                                                                                    
                                                                                                    
                                                                                                    
                                                                                                    
                                                                                                    
                                                                                                    
                           
<?xpacket end="w"?></metadata>
<defs>

  </defs>
  <path id="EQUALIZER" class="cls-1" d="M1002.5,2845.5h-3a1.5,1.5,0,0,1-1.5-1.5v-6a1.5,1.5,0,0,1,1.5-1.5h3a1.5,1.5,0,0,1,1.5,1.5v6A1.5,1.5,0,0,1,1002.5,2845.5Zm-3-15a1.5,1.5,0,0,1,3,0v4.5h-3v-4.5Zm-8,23h-3a1.5,1.5,0,0,1-1.5-1.5v-6a1.5,1.5,0,0,1,1.5-1.5h3a1.5,1.5,0,0,1,1.5,1.5v6A1.5,1.5,0,0,1,991.5,2853.5Zm-3-23a1.5,1.5,0,0,1,3,0V2843h-3v-12.5Zm-8,19h-3a1.5,1.5,0,0,1-1.5-1.5v-6a1.5,1.5,0,0,1,1.5-1.5h3a1.5,1.5,0,0,1,1.5,1.5v6A1.5,1.5,0,0,1,980.5,2849.5Zm-3-19a1.5,1.5,0,1,1,3,0v8.5h-3v-8.5Zm3,29a1.5,1.5,0,1,1-3,0V2851h3v8.5Zm11,0a1.5,1.5,0,0,1-3,0V2855h3v4.5Zm11,0a1.5,1.5,0,0,1-3,0V2847h3v12.5Z" transform="translate(-974 -2829)"/>
</svg>
