<svg xmlns="http://www.w3.org/2000/svg" width="49.739" height="50" viewBox="0 0 23.875 24">
  <metadata><?xpacket begin="﻿" id="W5M0MpCehiHzreSzNTczkc9d"?>
<x:xmpmeta xmlns:x="adobe:ns:meta/" x:xmptk="Adobe XMP Core 5.6-c138 79.159824, 2016/09/14-01:09:01        ">
   <rdf:RDF xmlns:rdf="http://www.w3.org/1999/02/22-rdf-syntax-ns#">
      <rdf:Description rdf:about=""/>
   </rdf:RDF>
</x:xmpmeta>
                                                                                                    
                                                                                                    
                                                                                                    
                                                                                                    
                                                                                                    
                                                                                                    
                                                                                                    
                                                                                                    
                                                                                                    
                                                                                                    
                                                                                                    
                                                                                                    
                                                                                                    
                                                                                                    
                                                                                                    
                                                                                                    
                                                                                                    
                                                                                                    
                                                                                                    
                                                                                                    
                           
<?xpacket end="w"?></metadata>
<defs>

  </defs>
  <path id="google_plus" data-name="google plus" class="cls-1" d="M640.466,6272.06v3.65h-1.492v-3.65h-3.73v-1.49h3.73v-3.65h1.492v3.65h3.73v1.49h-3.73Zm-10.316-3.7a3.842,3.842,0,0,1,2.1,3.49A4.062,4.062,0,0,1,630.4,6275c-1.016.78-1.208,1.11-1.208,1.77,0,0.57,1.088,1.54,1.656,1.93a4.278,4.278,0,0,1,2.156,4.04c0,2.24-2.156,4.74-6.141,4.74-3.5,0-6.539-1.68-6.539-3.92,0-2.27,2.784-4.47,6.28-4.47,0.381,0,.73-0.02,1.092-0.02a2.414,2.414,0,0,1-.858-1.72,2.635,2.635,0,0,1,.319-1.18,5.719,5.719,0,0,1-.583-0.01,4.579,4.579,0,0,1-4.8-4.58c0-2.44,2.657-4.69,5.48-4.69h6.3l-1.409,1.47h-2Zm-2.88,11.31c-2.416-.03-4.581,1.45-4.581,3.23,0,1.81,1.746,3.13,4.162,3.13,3.4,0,4.582-1.23,4.582-3.04a2.735,2.735,0,0,0-.078-0.64c-0.265-1.03-1.206-1.53-2.518-2.43A5.547,5.547,0,0,0,627.27,6279.67Zm2.716-7.79c-0.281-2.1-1.892-3.78-3.514-3.83s-2.709,1.56-2.429,3.66,1.821,3.84,3.443,3.88S630.265,6273.98,629.986,6271.88Z" transform="translate(-620.313 -6265.19)"/>
</svg>
