<svg xmlns="http://www.w3.org/2000/svg" width="49.739" height="49.874" viewBox="0 0 23.875 23.94">
  <metadata><?xpacket begin="﻿" id="W5M0MpCehiHzreSzNTczkc9d"?>
<x:xmpmeta xmlns:x="adobe:ns:meta/" x:xmptk="Adobe XMP Core 5.6-c138 79.159824, 2016/09/14-01:09:01        ">
   <rdf:RDF xmlns:rdf="http://www.w3.org/1999/02/22-rdf-syntax-ns#">
      <rdf:Description rdf:about=""/>
   </rdf:RDF>
</x:xmpmeta>
                                                                                                    
                                                                                                    
                                                                                                    
                                                                                                    
                                                                                                    
                                                                                                    
                                                                                                    
                                                                                                    
                                                                                                    
                                                                                                    
                                                                                                    
                                                                                                    
                                                                                                    
                                                                                                    
                                                                                                    
                                                                                                    
                                                                                                    
                                                                                                    
                                                                                                    
                                                                                                    
                           
<?xpacket end="w"?></metadata>
<defs>

  </defs>
  <path id="instagram" class="cls-1" d="M551.693,6288.98h-17.9a3,3,0,0,1-2.984-3v-17.96a2.99,2.99,0,0,1,2.984-3h17.9a2.99,2.99,0,0,1,2.984,3v17.96A3,3,0,0,1,551.693,6288.98Zm-8.952-16.62a4.616,4.616,0,0,0-4.195,2.69h0a0.341,0.341,0,0,1-.02.05c-0.045.1-.083,0.2-0.121,0.3-0.017.05-.036,0.1-0.053,0.15-0.033.1-.062,0.21-0.088,0.32-0.013.05-.028,0.1-0.039,0.15-0.024.11-.041,0.23-0.057,0.34-0.006.05-.016,0.09-0.021,0.14a4.626,4.626,0,1,0,9.223.5,4.927,4.927,0,0,0-.027-0.5c-0.005-.05-0.015-0.09-0.022-0.14-0.015-.11-0.032-0.23-0.057-0.34-0.011-.05-0.026-0.1-0.038-0.15-0.027-.11-0.055-0.22-0.089-0.32-0.016-.05-0.035-0.1-0.053-0.15-0.037-.1-0.076-0.2-0.12-0.3a0.257,0.257,0,0,1-.02-0.05h-0.005A4.615,4.615,0,0,0,542.741,6272.36Zm9.25-3.45a1.19,1.19,0,0,0-1.193-1.19H548.41a1.19,1.19,0,0,0-1.193,1.19v2.4a1.2,1.2,0,0,0,1.193,1.2H550.8a1.2,1.2,0,0,0,1.193-1.2v-2.4Zm0,6.14h-2.2a7.311,7.311,0,1,1-14.1,0h-2.2v10.03a1.2,1.2,0,0,0,1.194,1.2H550.8a1.2,1.2,0,0,0,1.193-1.2v-10.03Z" transform="translate(-530.813 -6265.03)"/>
</svg>
