<svg xmlns="http://www.w3.org/2000/svg" width="50" height="50" viewBox="0 0 32 32">
  <metadata><?xpacket begin="﻿" id="W5M0MpCehiHzreSzNTczkc9d"?>
<x:xmpmeta xmlns:x="adobe:ns:meta/" x:xmptk="Adobe XMP Core 5.6-c138 79.159824, 2016/09/14-01:09:01        ">
   <rdf:RDF xmlns:rdf="http://www.w3.org/1999/02/22-rdf-syntax-ns#">
      <rdf:Description rdf:about=""/>
   </rdf:RDF>
</x:xmpmeta>
                                                                                                    
                                                                                                    
                                                                                                    
                                                                                                    
                                                                                                    
                                                                                                    
                                                                                                    
                                                                                                    
                                                                                                    
                                                                                                    
                                                                                                    
                                                                                                    
                                                                                                    
                                                                                                    
                                                                                                    
                                                                                                    
                                                                                                    
                                                                                                    
                                                                                                    
                                                                                                    
                           
<?xpacket end="w"?></metadata>
<defs>

  </defs>
  <path id="LINE_GRAPH" data-name="LINE GRAPH" class="cls-1" d="M821.5,1591h-29a1.5,1.5,0,0,1-1.5-1.5v-29a1.5,1.5,0,0,1,1.5-1.5h29a1.5,1.5,0,0,1,1.5,1.5v29A1.5,1.5,0,0,1,821.5,1591Zm-1.5-29H794v26h26v-26Zm-23.784,13.24h0l4-2.5h0a1.524,1.524,0,0,1,1.625.03h0l6.631,4.42,7.638-5.4a1.5,1.5,0,1,1,1.764,2.43h0l-8.5,6h0a1.489,1.489,0,0,1-.879.29,1.508,1.508,0,0,1-.861-0.28l-6.656-4.43-3.136,1.96a1.533,1.533,0,0,1-.847.26A1.5,1.5,0,0,1,796.215,1575.24Z" transform="translate(-791 -1559)"/>
</svg>
