<svg xmlns="http://www.w3.org/2000/svg" width="50" height="49.937" viewBox="0 0 24 23.97">
  <metadata><?xpacket begin="﻿" id="W5M0MpCehiHzreSzNTczkc9d"?>
<x:xmpmeta xmlns:x="adobe:ns:meta/" x:xmptk="Adobe XMP Core 5.6-c138 79.159824, 2016/09/14-01:09:01        ">
   <rdf:RDF xmlns:rdf="http://www.w3.org/1999/02/22-rdf-syntax-ns#">
      <rdf:Description rdf:about=""/>
   </rdf:RDF>
</x:xmpmeta>
                                                                                                    
                                                                                                    
                                                                                                    
                                                                                                    
                                                                                                    
                                                                                                    
                                                                                                    
                                                                                                    
                                                                                                    
                                                                                                    
                                                                                                    
                                                                                                    
                                                                                                    
                                                                                                    
                                                                                                    
                                                                                                    
                                                                                                    
                                                                                                    
                                                                                                    
                                                                                                    
                           
<?xpacket end="w"?></metadata>
<defs>

  </defs>
  <path id="pinterest" class="cls-1" d="M585.777,6280.61c-0.2.77-.392,1.59-0.6,2.39a18.219,18.219,0,0,1-.67,2.31,11.89,11.89,0,0,1-1.906,3.3c-0.536.62-.421,0.37-0.583,0.34a0.3,0.3,0,0,1-.158-0.32,18.29,18.29,0,0,1,.007-3.13,17.114,17.114,0,0,1,.549-3.25c0.452-1.93.882-3.82,1.338-5.76a1.316,1.316,0,0,0,.084-0.42,6.065,6.065,0,0,1-.4-1.59,5.107,5.107,0,0,1,.13-1.82,3,3,0,0,1,1.767-2.19,2.009,2.009,0,0,1,1.617.13,1.756,1.756,0,0,1,.809,1.16,4.217,4.217,0,0,1-.075,1.77c-0.249,1.14-.576,2-0.874,3.1a3.388,3.388,0,0,0-.176,1.69,1.988,1.988,0,0,0,.79,1.2,2.309,2.309,0,0,0,1.515.42,3.293,3.293,0,0,0,2.473-1.47,8.656,8.656,0,0,0,1.561-4.38,10.763,10.763,0,0,0,.065-1.88,5.129,5.129,0,0,0-1.051-2.92,4.946,4.946,0,0,0-2.342-1.6,7.757,7.757,0,0,0-3.5-.22,6.17,6.17,0,0,0-4.582,3.31,6.625,6.625,0,0,0-.781,3.19,4.18,4.18,0,0,0,.632,2.34c0.124,0.18.306,0.34,0.428,0.55a1.624,1.624,0,0,1-.111,1.09c-0.1.4-.114,0.95-0.577,0.96a1.46,1.46,0,0,1-.6-0.23,4.779,4.779,0,0,1-2.259-3.49,8.407,8.407,0,0,1,0-3.03,8.6,8.6,0,0,1,4.1-5.75,9.714,9.714,0,0,1,3.643-1.26,13.781,13.781,0,0,1,1.5-.12,8.842,8.842,0,0,1,4.034.76,8.209,8.209,0,0,1,2.779,2,7.6,7.6,0,0,1,1.71,3.1,7.485,7.485,0,0,1,.371,2.14,12.907,12.907,0,0,1-.288,2.22,8.757,8.757,0,0,1-3.578,6.04,6.009,6.009,0,0,1-1.636.75,5.835,5.835,0,0,1-2.091.27,4.24,4.24,0,0,1-1.85-.54A3.148,3.148,0,0,1,585.777,6280.61Z" transform="translate(-575.313 -6265.03)"/>
</svg>
