<svg xmlns="http://www.w3.org/2000/svg" width="50" height="49.937" viewBox="0 0 24 23.97">
  <metadata><?xpacket begin="﻿" id="W5M0MpCehiHzreSzNTczkc9d"?>
<x:xmpmeta xmlns:x="adobe:ns:meta/" x:xmptk="Adobe XMP Core 5.6-c138 79.159824, 2016/09/14-01:09:01        ">
   <rdf:RDF xmlns:rdf="http://www.w3.org/1999/02/22-rdf-syntax-ns#">
      <rdf:Description rdf:about=""/>
   </rdf:RDF>
</x:xmpmeta>
                                                                                                    
                                                                                                    
                                                                                                    
                                                                                                    
                                                                                                    
                                                                                                    
                                                                                                    
                                                                                                    
                                                                                                    
                                                                                                    
                                                                                                    
                                                                                                    
                                                                                                    
                                                                                                    
                                                                                                    
                                                                                                    
                                                                                                    
                                                                                                    
                                                                                                    
                                                                                                    
                           
<?xpacket end="w"?></metadata>
<defs>

  </defs>
  <path id="tumblr" class="cls-1" d="M774.013,6287.67a14.668,14.668,0,0,1-2.758,1.02,11.863,11.863,0,0,1-2.67.29,7.357,7.357,0,0,1-2.563-.41,6.264,6.264,0,0,1-2.135-1.19,4.324,4.324,0,0,1-1.228-1.63,7.16,7.16,0,0,1-.341-2.51v-8.41H759.09v-3.39a8.289,8.289,0,0,0,2.68-1.32,6.493,6.493,0,0,0,1.6-2.05,9.322,9.322,0,0,0,.833-3.06h3.38v5.55h5.494v4.27h-5.494v6.15a10.484,10.484,0,0,0,.128,2.58,2.2,2.2,0,0,0,.906,1.04,3.393,3.393,0,0,0,1.8.48,6.455,6.455,0,0,0,3.591-1.19v3.78Z" transform="translate(-754.547 -6265)"/>
</svg>
