<svg xmlns="http://www.w3.org/2000/svg" width="49.739" height="50" viewBox="0 0 23.875 24">
  <metadata><?xpacket begin="﻿" id="W5M0MpCehiHzreSzNTczkc9d"?>
<x:xmpmeta xmlns:x="adobe:ns:meta/" x:xmptk="Adobe XMP Core 5.6-c138 79.159824, 2016/09/14-01:09:01        ">
   <rdf:RDF xmlns:rdf="http://www.w3.org/1999/02/22-rdf-syntax-ns#">
      <rdf:Description rdf:about=""/>
   </rdf:RDF>
</x:xmpmeta>
                                                                                                    
                                                                                                    
                                                                                                    
                                                                                                    
                                                                                                    
                                                                                                    
                                                                                                    
                                                                                                    
                                                                                                    
                                                                                                    
                                                                                                    
                                                                                                    
                                                                                                    
                                                                                                    
                                                                                                    
                                                                                                    
                                                                                                    
                                                                                                    
                                                                                                    
                                                                                                    
                           
<?xpacket end="w"?></metadata>
<defs>

  </defs>
  <path id="twitter" class="cls-1" d="M502.283,6267.27a5.042,5.042,0,0,1,3.87,1.54,7.9,7.9,0,0,0,2.51-.85l0.609-.33a4.859,4.859,0,0,1-1.59,2.3,2.246,2.246,0,0,1-.537.39v0.01a9.162,9.162,0,0,0,2.772-.75v0.01a7.908,7.908,0,0,1-1.661,1.91c-0.255.2-.51,0.41-0.765,0.61a14.047,14.047,0,0,1-.226,3.15c-1.224,5.52-4.464,9.27-9.594,10.87a14.645,14.645,0,0,1-6.93.29,17.713,17.713,0,0,1-2.88-.95,11.465,11.465,0,0,1-1.385-.71l-0.431-.27a7.315,7.315,0,0,0,1.565.06c0.482-.08.954-0.06,1.4-0.15a10.1,10.1,0,0,0,2.939-1.07,5.365,5.365,0,0,0,1.327-.87,4.255,4.255,0,0,1-1.458-.26,4.939,4.939,0,0,1-3.107-3.15,4.8,4.8,0,0,0,2.187-.09,3.671,3.671,0,0,1-1.6-.65,4.723,4.723,0,0,1-2.306-4.2c0.167,0.07.335,0.16,0.5,0.23a5.1,5.1,0,0,0,1.027.29,1.368,1.368,0,0,0,.669.06h-0.023c-0.247-.29-0.649-0.48-0.9-0.79a5.035,5.035,0,0,1-1.1-4.46,5.546,5.546,0,0,1,.525-1.27,0.026,0.026,0,0,1,.024.01,3.053,3.053,0,0,0,.442.51,8.864,8.864,0,0,0,1.458,1.4,14.328,14.328,0,0,0,5.985,2.9,8.881,8.881,0,0,0,2.2.29,4.588,4.588,0,0,1,.024-2.31,4.828,4.828,0,0,1,2.771-3.29,5.914,5.914,0,0,1,1.088-.34C501.884,6267.32,502.083,6267.29,502.283,6267.27Z" transform="translate(-486.031 -6265)"/>
</svg>
