<svg xmlns="http://www.w3.org/2000/svg" viewBox="0 0 122.63 135.47"><defs><style>.cls-1{fill:#707070;}.cls-1,.cls-2,.cls-3,.cls-4,.cls-6{stroke:#fff;}.cls-1,.cls-2,.cls-3,.cls-4,.cls-6,.cls-7{stroke-miterlimit:10;}.cls-2{fill:#4da673;}.cls-3{fill:#ddd;}.cls-4{fill:#efc84a;}.cls-5,.cls-7{fill:#fff;}.cls-6,.cls-8{fill:#d6604f;}.cls-7{stroke:#707070;}</style></defs><title>Ресурс 1</title><g id="Слой_2" data-name="Слой 2"><g id="Слой_3" data-name="Слой 3"><ellipse class="cls-1" cx="104.06" cy="83.13" rx="8.31" ry="14.56"/><path class="cls-2" d="M54.65.5C5.47.5.5,48.14.5,48.14v59.5H106.67V48.14S103.83.5,54.65.5Z"/><rect class="cls-2" x="113.2" y="32.14" width="4.67" height="46.67"/></g><g id="Слой_4" data-name="Слой 4"><rect class="cls-3" x="0.5" y="107.64" width="106.17" height="12.21"/><rect class="cls-1" x="0.5" y="119.85" width="106.17" height="15.13"/></g><g id="Слой_2-2" data-name="Слой 2"><path class="cls-4" d="M5.95,48.3h35s3.17-9.17,12.67-9.17S67.45,48.3,67.45,48.3h34.5S95.83,5.47,53.39,5.47,5.95,48.3,5.95,48.3Z"/><rect class="cls-5" x="6.7" y="60.05" width="27.33" height="37.5" rx="5.67" ry="5.67"/><rect class="cls-5" x="40.03" y="60.05" width="27.33" height="37.5" rx="5.67" ry="5.67"/><rect class="cls-5" x="73.87" y="60.05" width="27.33" height="37.5" rx="5.67" ry="5.67"/><circle class="cls-2" cx="115.53" cy="83.13" r="6.59"/><circle class="cls-6" cx="8.95" cy="113.9" r="2.83"/><circle class="cls-6" cx="19.48" cy="113.9" r="2.83"/><circle class="cls-6" cx="30.56" cy="113.9" r="2.83"/><circle class="cls-2" cx="115.53" cy="29.72" r="4.44"/><rect class="cls-1" x="73.54" y="111.89" width="25.92" height="4.13"/><rect class="cls-7" x="7.13" y="124.85" width="42.25" height="5.12"/></g><g id="Слой_5" data-name="Слой 5"><path class="cls-8" d="M12.48,80.83c1-3.15,4.18-7.71,4.18-11.89a7.06,7.06,0,0,0-.2-1.72c1.66,0,3.18.92,3.18,2.72,0,3.64-2.69,6-4.18,8.77h4.47L22.25,67.8l4.24-.57L24,78.72h1.83l-.57,2.12H23.56L21.9,88.71H17.78l1.69-7.88Z"/><path class="cls-8" d="M80.53,81.67c1-3.15,4.18-7.71,4.18-11.89a7.06,7.06,0,0,0-.2-1.72c1.66,0,3.18.92,3.18,2.72,0,3.64-2.69,6-4.18,8.77H88L90.3,68.63l4.24-.57L92.07,79.55h1.83l-.57,2.12H91.61L90,89.55H85.83l1.69-7.88Z"/><path class="cls-8" d="M61.3,74.65c0,5.57-3.16,13.94-8.9,13.94-4.82,0-5.8-2.72-5.8-7.36,0-7.64,3.7-13.89,9.72-13.89C59.81,67.34,61.3,69.95,61.3,74.65ZM50.88,82c0,2.07.31,4.23,1.65,4.23,3.19,0,5.1-6.89,5.1-13.38,0-2.3-.2-4.06-1.51-4.06-1.68,0-4.62,4.14-5.1,10.44C51,80,50.88,81,50.88,82Z"/></g></g></svg>